<svg width="10" height="10" viewBox="0 0 10 10" fill="none" xmlns="http://www.w3.org/2000/svg">
<path fill-rule="evenodd" clip-rule="evenodd" d="M5.00001 0.479172C5.24164 0.479172 5.43751 0.675047 5.43751 0.916672V4.5625H9.08335C9.32498 4.5625 9.52085 4.75837 9.52085 5C9.52085 5.24162 9.32498 5.4375 9.08335 5.4375H5.43751V9.08334C5.43751 9.32496 5.24164 9.52084 5.00001 9.52084C4.75839 9.52084 4.56251 9.32496 4.56251 9.08334V5.4375H0.916687C0.675062 5.4375 0.479187 5.24162 0.479187 5C0.479187 4.75837 0.675062 4.5625 0.916687 4.5625H4.56251V0.916672C4.56251 0.675047 4.75839 0.479172 5.00001 0.479172Z" fill="black"/>
</svg>
