<svg width="12" height="14" viewBox="0 0 12 14" fill="none" xmlns="http://www.w3.org/2000/svg">
<path fill-rule="evenodd" clip-rule="evenodd" d="M3.66668 0.729177C3.9083 0.729177 4.10418 0.925052 4.10418 1.16668V1.89582H7.89582V1.16668C7.89582 0.925052 8.0917 0.729177 8.33332 0.729177C8.57495 0.729177 8.77082 0.925052 8.77082 1.16668V1.89582H10.0833C10.9693 1.89582 11.6875 2.61403 11.6875 3.49999V11.6667C11.6875 12.5526 10.9693 13.2708 10.0833 13.2708H1.91667C1.03071 13.2708 0.3125 12.5526 0.3125 11.6667V3.49999C0.3125 2.61403 1.03071 1.89582 1.91667 1.89582H3.22918V1.16668C3.22918 0.925052 3.42505 0.729177 3.66668 0.729177ZM3.22918 2.77082H1.91667C1.51396 2.77082 1.1875 3.09728 1.1875 3.49999V5.39582H10.8125V3.49999C10.8125 3.09728 10.486 2.77082 10.0833 2.77082H8.77082V3.50001C8.77082 3.74163 8.57495 3.93751 8.33332 3.93751C8.0917 3.93751 7.89582 3.74163 7.89582 3.50001V2.77082H4.10418V3.50001C4.10418 3.74163 3.9083 3.93751 3.66668 3.93751C3.42505 3.93751 3.22918 3.74163 3.22918 3.50001V2.77082ZM10.8125 6.27082H1.1875V11.6667C1.1875 12.0694 1.51396 12.3958 1.91667 12.3958H10.0833C10.486 12.3958 10.8125 12.0694 10.8125 11.6667V6.27082Z" fill="black"/>
</svg>
