<svg width="20" height="22" viewBox="0 0 20 22" fill="none" xmlns="http://www.w3.org/2000/svg">
<path fill-rule="evenodd" clip-rule="evenodd" d="M8.00002 2.00003C7.7348 2.00003 7.48045 2.10539 7.29291 2.29292C7.10537 2.48046 7.00002 2.73481 7.00002 3.00003V4.00001H13V3.00003C13 2.73481 12.8947 2.48046 12.7071 2.29292C12.5196 2.10539 12.2652 2.00003 12 2.00003H8.00002ZM15 4.00001V3.00003C15 2.20438 14.6839 1.44132 14.1213 0.87871C13.5587 0.316101 12.7957 3.05176e-05 12 3.05176e-05H8.00002C7.20437 3.05176e-05 6.44131 0.316101 5.8787 0.87871C5.31609 1.44132 5.00002 2.20438 5.00002 3.00003V4.00002L1 4.00001C0.447715 4.00001 0 4.44773 0 5.00001C0 5.5523 0.447715 6.00001 1 6.00001H2L2.00002 19C2.00002 19.7957 2.31609 20.5587 2.8787 21.1214C3.4413 21.684 4.20437 22 5.00002 22H15C15.7957 22 16.5587 21.684 17.1213 21.1214C17.6839 20.5587 18 19.7957 18 19V6.00001H19C19.5523 6.00001 20 5.5523 20 5.00001C20 4.44773 19.5523 4.00001 19 4.00001H15ZM6.00519 6.00002C6.00347 6.00003 6.00174 6.00003 6.00002 6.00003C5.99829 6.00003 5.99656 6.00003 5.99484 6.00002L4 6.00002L4.00002 19C4.00002 19.2652 4.10537 19.5196 4.29291 19.7071C4.48044 19.8947 4.7348 20 5.00002 20H15C15.2652 20 15.5196 19.8947 15.7071 19.7071C15.8947 19.5196 16 19.2652 16 19V6.00003L14.0027 6.00003C14.0018 6.00003 14.0009 6.00003 14 6.00003C13.9991 6.00003 13.9982 6.00003 13.9973 6.00003L6.00519 6.00002ZM7.99998 9.00003C8.55227 9.00003 8.99998 9.44775 8.99998 10V16C8.99998 16.5523 8.55227 17 7.99998 17C7.4477 17 6.99998 16.5523 6.99998 16V10C6.99998 9.44775 7.4477 9.00003 7.99998 9.00003ZM12 9.00003C12.5523 9.00003 13 9.44775 13 10V16C13 16.5523 12.5523 17 12 17C11.4477 17 11 16.5523 11 16V10C11 9.44775 11.4477 9.00003 12 9.00003Z" fill="black"/>
</svg>
