<svg width="12" height="8" viewBox="0 0 12 8" fill="none" xmlns="http://www.w3.org/2000/svg">
<path fill-rule="evenodd" clip-rule="evenodd" d="M0.75 0.0625C0.508375 0.0625 0.3125 0.258375 0.3125 0.5C0.3125 0.741625 0.508375 0.9375 0.75 0.9375H11.25C11.4916 0.9375 11.6875 0.741625 11.6875 0.5C11.6875 0.258375 11.4916 0.0625 11.25 0.0625H0.75ZM0.75 2.39587C0.508375 2.39587 0.3125 2.59174 0.3125 2.83337C0.3125 3.07499 0.508375 3.27087 0.75 3.27087H8.91667C9.15829 3.27087 9.35417 3.07499 9.35417 2.83337C9.35417 2.59174 9.15829 2.39587 8.91667 2.39587H0.75ZM0.3125 5.16667C0.3125 4.92504 0.508375 4.72917 0.75 4.72917H11.25C11.4916 4.72917 11.6875 4.92504 11.6875 5.16667C11.6875 5.40829 11.4916 5.60417 11.25 5.60417H0.75C0.508375 5.60417 0.3125 5.40829 0.3125 5.16667ZM0.75 7.0625C0.508375 7.0625 0.3125 7.25838 0.3125 7.5C0.3125 7.74162 0.508375 7.9375 0.75 7.9375H8.91667C9.15829 7.9375 9.35417 7.74162 9.35417 7.5C9.35417 7.25838 9.15829 7.0625 8.91667 7.0625H0.75Z" fill="black"/>
</svg>
